<mxfile host="Electron" modified="2023-06-26T10:51:15.911Z" agent="Mozilla/5.0 (Windows NT 10.0; Win64; x64) AppleWebKit/537.36 (KHTML, like Gecko) draw.io/21.5.0 Chrome/112.0.5615.204 Electron/24.5.1 Safari/537.36" etag="-lHAUbcQVRGQpFNDQZ9V" version="21.5.0" type="device">
  <diagram name="Pagina-1" id="5qQ5DRQxwsSi3XI_QzYM">
    <mxGraphModel dx="3191" dy="1286" grid="1" gridSize="10" guides="1" tooltips="1" connect="1" arrows="1" fold="1" page="1" pageScale="1" pageWidth="2336" pageHeight="1654" math="0" shadow="0">
      <root>
        <mxCell id="0" />
        <mxCell id="1" parent="0" />
        <mxCell id="PiYerZwcn-vwXJ7XSaG1-1" value="User" style="shape=umlLifeline;perimeter=lifelinePerimeter;container=1;collapsible=0;recursiveResize=0;rounded=0;shadow=0;strokeWidth=1;fontSize=12;spacing=2;" vertex="1" parent="1">
          <mxGeometry x="140" y="80" width="100" height="1152" as="geometry" />
        </mxCell>
        <mxCell id="PiYerZwcn-vwXJ7XSaG1-4" value="" style="endArrow=classic;html=1;rounded=0;fontStyle=1" edge="1" parent="PiYerZwcn-vwXJ7XSaG1-1" target="PiYerZwcn-vwXJ7XSaG1-8">
          <mxGeometry width="50" height="50" relative="1" as="geometry">
            <mxPoint x="52" y="448" as="sourcePoint" />
            <mxPoint x="295.5" y="448" as="targetPoint" />
          </mxGeometry>
        </mxCell>
        <mxCell id="PiYerZwcn-vwXJ7XSaG1-5" value="insert data" style="edgeLabel;html=1;align=center;verticalAlign=middle;resizable=0;points=[];" vertex="1" connectable="0" parent="PiYerZwcn-vwXJ7XSaG1-4">
          <mxGeometry x="-0.2279" y="-2" relative="1" as="geometry">
            <mxPoint x="-8" y="-2" as="offset" />
          </mxGeometry>
        </mxCell>
        <mxCell id="PiYerZwcn-vwXJ7XSaG1-6" value="" style="endArrow=classic;html=1;rounded=0;" edge="1" parent="PiYerZwcn-vwXJ7XSaG1-1" target="PiYerZwcn-vwXJ7XSaG1-8">
          <mxGeometry width="50" height="50" relative="1" as="geometry">
            <mxPoint x="50" y="98" as="sourcePoint" />
            <mxPoint x="100" y="48" as="targetPoint" />
          </mxGeometry>
        </mxCell>
        <mxCell id="PiYerZwcn-vwXJ7XSaG1-7" value="init" style="edgeLabel;html=1;align=center;verticalAlign=middle;resizable=0;points=[];" vertex="1" connectable="0" parent="PiYerZwcn-vwXJ7XSaG1-6">
          <mxGeometry x="-0.2058" y="1" relative="1" as="geometry">
            <mxPoint as="offset" />
          </mxGeometry>
        </mxCell>
        <mxCell id="PiYerZwcn-vwXJ7XSaG1-8" value="" style="shape=umlLifeline;perimeter=lifelinePerimeter;container=1;collapsible=0;recursiveResize=0;rounded=0;shadow=0;strokeWidth=1;fontSize=12;spacing=2;" vertex="1" parent="1">
          <mxGeometry x="624" y="80" width="100" height="1168" as="geometry" />
        </mxCell>
        <mxCell id="PiYerZwcn-vwXJ7XSaG1-9" value="pantry View&amp;nbsp;" style="text;html=1;strokeColor=none;fillColor=none;align=center;verticalAlign=middle;whiteSpace=wrap;rounded=0;fontSize=12;spacing=2;" vertex="1" parent="PiYerZwcn-vwXJ7XSaG1-8">
          <mxGeometry width="100" height="40" as="geometry" />
        </mxCell>
        <mxCell id="PiYerZwcn-vwXJ7XSaG1-10" value="" style="points=[];perimeter=orthogonalPerimeter;rounded=0;shadow=0;strokeWidth=1;fontSize=12;spacing=2;" vertex="1" parent="PiYerZwcn-vwXJ7XSaG1-8">
          <mxGeometry x="45" y="448" width="10" height="212" as="geometry" />
        </mxCell>
        <mxCell id="PiYerZwcn-vwXJ7XSaG1-14" value="" style="points=[];perimeter=orthogonalPerimeter;rounded=0;shadow=0;strokeWidth=1;fontSize=12;spacing=2;" vertex="1" parent="PiYerZwcn-vwXJ7XSaG1-8">
          <mxGeometry x="45" y="320" width="10" height="48" as="geometry" />
        </mxCell>
        <mxCell id="PiYerZwcn-vwXJ7XSaG1-15" value="" style="points=[];perimeter=orthogonalPerimeter;rounded=0;shadow=0;strokeWidth=1;fontSize=12;spacing=2;" vertex="1" parent="PiYerZwcn-vwXJ7XSaG1-8">
          <mxGeometry x="45" y="98" width="10" height="206" as="geometry" />
        </mxCell>
        <mxCell id="PiYerZwcn-vwXJ7XSaG1-44" value="" style="endArrow=classic;html=1;rounded=0;endFill=1;" edge="1" parent="PiYerZwcn-vwXJ7XSaG1-8">
          <mxGeometry width="50" height="50" relative="1" as="geometry">
            <mxPoint x="54.99857142857127" y="460" as="sourcePoint" />
            <mxPoint x="288" y="460" as="targetPoint" />
            <Array as="points">
              <mxPoint x="78.06999999999994" y="460" />
              <mxPoint x="101.06999999999994" y="460" />
              <mxPoint x="133.07000000000005" y="460" />
              <mxPoint x="261.07000000000005" y="460" />
            </Array>
          </mxGeometry>
        </mxCell>
        <mxCell id="PiYerZwcn-vwXJ7XSaG1-45" value="process data" style="edgeLabel;html=1;align=center;verticalAlign=middle;resizable=0;points=[];" vertex="1" connectable="0" parent="PiYerZwcn-vwXJ7XSaG1-44">
          <mxGeometry x="-0.2279" y="-2" relative="1" as="geometry">
            <mxPoint x="20" y="-2" as="offset" />
          </mxGeometry>
        </mxCell>
        <mxCell id="PiYerZwcn-vwXJ7XSaG1-180" value="" style="points=[];perimeter=orthogonalPerimeter;rounded=0;shadow=0;strokeWidth=1;fontSize=12;spacing=2;" vertex="1" parent="PiYerZwcn-vwXJ7XSaG1-8">
          <mxGeometry x="45" y="699" width="10" height="48" as="geometry" />
        </mxCell>
        <mxCell id="PiYerZwcn-vwXJ7XSaG1-16" value="" style="shape=note;whiteSpace=wrap;html=1;backgroundOutline=1;darkOpacity=0.05;size=11;fontSize=12;spacing=2;" vertex="1" parent="1">
          <mxGeometry x="140" y="30" width="100" height="40" as="geometry" />
        </mxCell>
        <mxCell id="PiYerZwcn-vwXJ7XSaG1-17" value="&lt;font style=&quot;font-size: 12px;&quot;&gt;NOTE:&lt;br style=&quot;font-size: 12px;&quot;&gt;ACTOR&lt;br style=&quot;font-size: 12px;&quot;&gt;&lt;/font&gt;" style="text;html=1;strokeColor=none;fillColor=none;align=left;verticalAlign=middle;whiteSpace=wrap;rounded=0;fontSize=12;spacing=2;" vertex="1" parent="1">
          <mxGeometry x="140" y="30" width="100" height="40" as="geometry" />
        </mxCell>
        <mxCell id="PiYerZwcn-vwXJ7XSaG1-18" value="" style="shape=note;whiteSpace=wrap;html=1;backgroundOutline=1;darkOpacity=0.05;size=11;fontSize=12;spacing=2;" vertex="1" parent="1">
          <mxGeometry x="624" y="30" width="100" height="40" as="geometry" />
        </mxCell>
        <mxCell id="PiYerZwcn-vwXJ7XSaG1-19" value="&lt;font style=&quot;font-size: 12px;&quot;&gt;NOTE:&lt;br style=&quot;font-size: 12px;&quot;&gt;Boundary&lt;br style=&quot;font-size: 12px;&quot;&gt;&lt;/font&gt;" style="text;html=1;strokeColor=none;fillColor=none;align=left;verticalAlign=middle;whiteSpace=wrap;rounded=0;fontSize=12;spacing=2;" vertex="1" parent="1">
          <mxGeometry x="624" y="30" width="100" height="40" as="geometry" />
        </mxCell>
        <mxCell id="PiYerZwcn-vwXJ7XSaG1-20" value="Use Case: Add new product" style="text;html=1;strokeColor=none;fillColor=none;align=left;verticalAlign=middle;whiteSpace=wrap;rounded=0;fontSize=12;spacing=2;" vertex="1" parent="1">
          <mxGeometry width="140" height="30" as="geometry" />
        </mxCell>
        <mxCell id="PiYerZwcn-vwXJ7XSaG1-21" value="" style="shape=umlLifeline;perimeter=lifelinePerimeter;container=1;collapsible=0;recursiveResize=0;rounded=0;shadow=0;strokeWidth=1;fontSize=12;spacing=2;" vertex="1" parent="1">
          <mxGeometry x="864" y="80" width="100" height="1168" as="geometry" />
        </mxCell>
        <mxCell id="PiYerZwcn-vwXJ7XSaG1-22" value="&lt;font style=&quot;font-size: 12px;&quot;&gt;&amp;nbsp;pantry manager&lt;br&gt;&lt;/font&gt;" style="text;html=1;strokeColor=none;fillColor=none;align=center;verticalAlign=middle;whiteSpace=wrap;rounded=0;fontSize=12;spacing=2;" vertex="1" parent="PiYerZwcn-vwXJ7XSaG1-21">
          <mxGeometry width="100" height="40" as="geometry" />
        </mxCell>
        <mxCell id="PiYerZwcn-vwXJ7XSaG1-30" value="" style="points=[];perimeter=orthogonalPerimeter;rounded=0;shadow=0;strokeWidth=1;fontSize=12;spacing=2;" vertex="1" parent="PiYerZwcn-vwXJ7XSaG1-21">
          <mxGeometry x="45" y="160" width="10" height="16" as="geometry" />
        </mxCell>
        <mxCell id="PiYerZwcn-vwXJ7XSaG1-137" value="" style="points=[];perimeter=orthogonalPerimeter;rounded=0;shadow=0;strokeWidth=1;fontSize=12;spacing=2;" vertex="1" parent="PiYerZwcn-vwXJ7XSaG1-21">
          <mxGeometry x="45" y="460" width="10" height="180" as="geometry" />
        </mxCell>
        <mxCell id="PiYerZwcn-vwXJ7XSaG1-142" value="" style="endArrow=open;html=1;rounded=0;exitX=1;exitY=0.733;exitDx=0;exitDy=0;exitPerimeter=0;endFill=0;entryX=0.103;entryY=-0.006;entryDx=0;entryDy=0;entryPerimeter=0;" edge="1" parent="PiYerZwcn-vwXJ7XSaG1-21" target="PiYerZwcn-vwXJ7XSaG1-144">
          <mxGeometry width="50" height="50" relative="1" as="geometry">
            <mxPoint x="55" y="534.81" as="sourcePoint" />
            <mxPoint x="246" y="534.81" as="targetPoint" />
          </mxGeometry>
        </mxCell>
        <mxCell id="PiYerZwcn-vwXJ7XSaG1-143" value="setQuantity" style="edgeLabel;html=1;align=center;verticalAlign=middle;resizable=0;points=[];" vertex="1" connectable="0" parent="PiYerZwcn-vwXJ7XSaG1-142">
          <mxGeometry x="-0.1444" relative="1" as="geometry">
            <mxPoint x="102" as="offset" />
          </mxGeometry>
        </mxCell>
        <mxCell id="PiYerZwcn-vwXJ7XSaG1-138" value="" style="endArrow=open;html=1;rounded=0;exitX=1;exitY=0.733;exitDx=0;exitDy=0;exitPerimeter=0;endFill=0;" edge="1" parent="PiYerZwcn-vwXJ7XSaG1-21">
          <mxGeometry width="50" height="50" relative="1" as="geometry">
            <mxPoint x="55" y="470" as="sourcePoint" />
            <mxPoint x="246" y="470.01" as="targetPoint" />
          </mxGeometry>
        </mxCell>
        <mxCell id="PiYerZwcn-vwXJ7XSaG1-139" value="setName" style="edgeLabel;html=1;align=center;verticalAlign=middle;resizable=0;points=[];" vertex="1" connectable="0" parent="PiYerZwcn-vwXJ7XSaG1-138">
          <mxGeometry x="-0.1444" relative="1" as="geometry">
            <mxPoint as="offset" />
          </mxGeometry>
        </mxCell>
        <mxCell id="PiYerZwcn-vwXJ7XSaG1-31" value="" style="shape=note;whiteSpace=wrap;html=1;backgroundOutline=1;darkOpacity=0.05;size=11;fontSize=12;spacing=2;" vertex="1" parent="1">
          <mxGeometry x="864" y="30" width="100" height="40" as="geometry" />
        </mxCell>
        <mxCell id="PiYerZwcn-vwXJ7XSaG1-32" value="&lt;font style=&quot;font-size: 12px;&quot;&gt;NOTE:&lt;br style=&quot;font-size: 12px;&quot;&gt;Controller&lt;br style=&quot;font-size: 12px;&quot;&gt;&lt;/font&gt;" style="text;html=1;strokeColor=none;fillColor=none;align=left;verticalAlign=middle;whiteSpace=wrap;rounded=0;fontSize=12;spacing=2;" vertex="1" parent="1">
          <mxGeometry x="864" y="30" width="100" height="40" as="geometry" />
        </mxCell>
        <mxCell id="PiYerZwcn-vwXJ7XSaG1-33" value="" style="shape=umlLifeline;perimeter=lifelinePerimeter;container=1;collapsible=0;recursiveResize=0;rounded=0;shadow=0;strokeWidth=1;fontSize=12;spacing=2;" vertex="1" parent="1">
          <mxGeometry x="1064" y="80" width="100" height="1168" as="geometry" />
        </mxCell>
        <mxCell id="PiYerZwcn-vwXJ7XSaG1-34" value="name" style="text;html=1;strokeColor=none;fillColor=none;align=center;verticalAlign=middle;whiteSpace=wrap;rounded=0;fontSize=12;spacing=2;" vertex="1" parent="PiYerZwcn-vwXJ7XSaG1-33">
          <mxGeometry width="100" height="40" as="geometry" />
        </mxCell>
        <mxCell id="PiYerZwcn-vwXJ7XSaG1-39" value="" style="points=[];perimeter=orthogonalPerimeter;rounded=0;shadow=0;strokeWidth=1;fontSize=12;spacing=2;" vertex="1" parent="PiYerZwcn-vwXJ7XSaG1-33">
          <mxGeometry x="45" y="192" width="10" height="16" as="geometry" />
        </mxCell>
        <mxCell id="PiYerZwcn-vwXJ7XSaG1-140" value="" style="points=[];perimeter=orthogonalPerimeter;rounded=0;shadow=0;strokeWidth=1;fontSize=12;spacing=2;" vertex="1" parent="PiYerZwcn-vwXJ7XSaG1-33">
          <mxGeometry x="45" y="470" width="10" height="80" as="geometry" />
        </mxCell>
        <mxCell id="PiYerZwcn-vwXJ7XSaG1-40" value="" style="shape=note;whiteSpace=wrap;html=1;backgroundOutline=1;darkOpacity=0.05;size=11;fontSize=12;spacing=2;" vertex="1" parent="1">
          <mxGeometry x="1064" y="30" width="100" height="40" as="geometry" />
        </mxCell>
        <mxCell id="PiYerZwcn-vwXJ7XSaG1-41" value="&lt;font style=&quot;font-size: 12px;&quot;&gt;NOTE:&lt;br style=&quot;font-size: 12px;&quot;&gt;Entity&lt;br style=&quot;font-size: 12px;&quot;&gt;&lt;/font&gt;" style="text;html=1;strokeColor=none;fillColor=none;align=left;verticalAlign=middle;whiteSpace=wrap;rounded=0;fontSize=12;spacing=2;" vertex="1" parent="1">
          <mxGeometry x="1064" y="30" width="100" height="40" as="geometry" />
        </mxCell>
        <mxCell id="PiYerZwcn-vwXJ7XSaG1-42" value="" style="endArrow=classic;html=1;rounded=0;fontStyle=1" edge="1" parent="1" target="PiYerZwcn-vwXJ7XSaG1-8">
          <mxGeometry width="50" height="50" relative="1" as="geometry">
            <mxPoint x="192" y="400" as="sourcePoint" />
            <mxPoint x="435.5" y="400" as="targetPoint" />
          </mxGeometry>
        </mxCell>
        <mxCell id="PiYerZwcn-vwXJ7XSaG1-43" value="tap View Pantry" style="edgeLabel;html=1;align=center;verticalAlign=middle;resizable=0;points=[];" vertex="1" connectable="0" parent="PiYerZwcn-vwXJ7XSaG1-42">
          <mxGeometry x="-0.2279" y="-2" relative="1" as="geometry">
            <mxPoint x="20" y="-2" as="offset" />
          </mxGeometry>
        </mxCell>
        <mxCell id="PiYerZwcn-vwXJ7XSaG1-50" value="" style="shape=umlLifeline;perimeter=lifelinePerimeter;container=1;collapsible=0;recursiveResize=0;rounded=0;shadow=0;strokeWidth=1;fontSize=12;spacing=2;" vertex="1" parent="1">
          <mxGeometry x="1264" y="80" width="100" height="1152" as="geometry" />
        </mxCell>
        <mxCell id="PiYerZwcn-vwXJ7XSaG1-51" value="quantity" style="text;html=1;strokeColor=none;fillColor=none;align=center;verticalAlign=middle;whiteSpace=wrap;rounded=0;fontSize=12;spacing=2;" vertex="1" parent="PiYerZwcn-vwXJ7XSaG1-50">
          <mxGeometry width="100" height="40" as="geometry" />
        </mxCell>
        <mxCell id="PiYerZwcn-vwXJ7XSaG1-55" value="" style="points=[];perimeter=orthogonalPerimeter;rounded=0;shadow=0;strokeWidth=1;fontSize=12;spacing=2;" vertex="1" parent="PiYerZwcn-vwXJ7XSaG1-50">
          <mxGeometry x="46.5" y="214" width="10" height="16" as="geometry" />
        </mxCell>
        <mxCell id="PiYerZwcn-vwXJ7XSaG1-144" value="" style="points=[];perimeter=orthogonalPerimeter;rounded=0;shadow=0;strokeWidth=1;fontSize=12;spacing=2;" vertex="1" parent="PiYerZwcn-vwXJ7XSaG1-50">
          <mxGeometry x="43.5" y="535" width="10" height="45" as="geometry" />
        </mxCell>
        <mxCell id="PiYerZwcn-vwXJ7XSaG1-184" value="" style="endArrow=classic;html=1;rounded=0;strokeColor=#000000;strokeWidth=1;exitX=1.085;exitY=0.224;exitDx=0;exitDy=0;exitPerimeter=0;entryX=1;entryY=0.337;entryDx=0;entryDy=0;entryPerimeter=0;" edge="1" parent="PiYerZwcn-vwXJ7XSaG1-50">
          <mxGeometry width="50" height="50" relative="1" as="geometry">
            <mxPoint x="54.01000000000022" y="539.08" as="sourcePoint" />
            <mxPoint x="53.50000000000023" y="549.352" as="targetPoint" />
            <Array as="points">
              <mxPoint x="105.66000000000008" y="539" />
              <mxPoint x="105.66000000000008" y="549" />
              <mxPoint x="102.50000000000023" y="548.9999999999999" />
              <mxPoint x="102.50000000000023" y="548.9999999999999" />
              <mxPoint x="102.50000000000023" y="548.9999999999999" />
            </Array>
          </mxGeometry>
        </mxCell>
        <mxCell id="PiYerZwcn-vwXJ7XSaG1-185" value="checkQuantity" style="edgeLabel;html=1;align=center;verticalAlign=middle;resizable=0;points=[];" vertex="1" connectable="0" parent="PiYerZwcn-vwXJ7XSaG1-184">
          <mxGeometry x="-0.3994" relative="1" as="geometry">
            <mxPoint x="54" y="5" as="offset" />
          </mxGeometry>
        </mxCell>
        <mxCell id="PiYerZwcn-vwXJ7XSaG1-56" value="" style="shape=note;whiteSpace=wrap;html=1;backgroundOutline=1;darkOpacity=0.05;size=11;fontSize=12;spacing=2;" vertex="1" parent="1">
          <mxGeometry x="1264" y="30" width="100" height="40" as="geometry" />
        </mxCell>
        <mxCell id="PiYerZwcn-vwXJ7XSaG1-57" value="&lt;font style=&quot;font-size: 12px;&quot;&gt;NOTE:&lt;br style=&quot;font-size: 12px;&quot;&gt;Entity&lt;br style=&quot;font-size: 12px;&quot;&gt;&lt;/font&gt;" style="text;html=1;strokeColor=none;fillColor=none;align=left;verticalAlign=middle;whiteSpace=wrap;rounded=0;fontSize=12;spacing=2;" vertex="1" parent="1">
          <mxGeometry x="1264" y="30" width="100" height="40" as="geometry" />
        </mxCell>
        <mxCell id="PiYerZwcn-vwXJ7XSaG1-66" value="" style="shape=umlLifeline;perimeter=lifelinePerimeter;container=1;collapsible=0;recursiveResize=0;rounded=0;shadow=0;strokeWidth=1;fontSize=12;spacing=2;" vertex="1" parent="1">
          <mxGeometry x="1456" y="80" width="100" height="1152" as="geometry" />
        </mxCell>
        <mxCell id="PiYerZwcn-vwXJ7XSaG1-67" value="expiration" style="text;html=1;strokeColor=none;fillColor=none;align=center;verticalAlign=middle;whiteSpace=wrap;rounded=0;fontSize=12;spacing=2;" vertex="1" parent="PiYerZwcn-vwXJ7XSaG1-66">
          <mxGeometry width="100" height="40" as="geometry" />
        </mxCell>
        <mxCell id="PiYerZwcn-vwXJ7XSaG1-69" value="" style="points=[];perimeter=orthogonalPerimeter;rounded=0;shadow=0;strokeWidth=1;fontSize=12;spacing=2;" vertex="1" parent="PiYerZwcn-vwXJ7XSaG1-66">
          <mxGeometry x="45" y="239" width="10" height="16" as="geometry" />
        </mxCell>
        <mxCell id="PiYerZwcn-vwXJ7XSaG1-149" value="" style="points=[];perimeter=orthogonalPerimeter;rounded=0;shadow=0;strokeWidth=1;fontSize=12;spacing=2;" vertex="1" parent="PiYerZwcn-vwXJ7XSaG1-66">
          <mxGeometry x="45" y="560" width="10" height="50" as="geometry" />
        </mxCell>
        <mxCell id="PiYerZwcn-vwXJ7XSaG1-167" value="" style="endArrow=classic;html=1;rounded=0;exitX=0.069;exitY=0.936;exitDx=0;exitDy=0;exitPerimeter=0;dashed=1;" edge="1" parent="PiYerZwcn-vwXJ7XSaG1-66">
          <mxGeometry width="50" height="50" relative="1" as="geometry">
            <mxPoint x="45" y="610" as="sourcePoint" />
            <mxPoint x="-536" y="610" as="targetPoint" />
          </mxGeometry>
        </mxCell>
        <mxCell id="PiYerZwcn-vwXJ7XSaG1-171" value="return value" style="edgeLabel;html=1;align=center;verticalAlign=middle;resizable=0;points=[];" vertex="1" connectable="0" parent="PiYerZwcn-vwXJ7XSaG1-167">
          <mxGeometry x="-0.6732" y="1" relative="1" as="geometry">
            <mxPoint y="-3" as="offset" />
          </mxGeometry>
        </mxCell>
        <mxCell id="PiYerZwcn-vwXJ7XSaG1-70" value="" style="shape=note;whiteSpace=wrap;html=1;backgroundOutline=1;darkOpacity=0.05;size=11;fontSize=12;spacing=2;" vertex="1" parent="1">
          <mxGeometry x="1456" y="30" width="100" height="40" as="geometry" />
        </mxCell>
        <mxCell id="PiYerZwcn-vwXJ7XSaG1-71" value="&lt;font style=&quot;font-size: 12px;&quot;&gt;NOTE:&lt;br style=&quot;font-size: 12px;&quot;&gt;Entity&lt;br style=&quot;font-size: 12px;&quot;&gt;&lt;/font&gt;" style="text;html=1;strokeColor=none;fillColor=none;align=left;verticalAlign=middle;whiteSpace=wrap;rounded=0;fontSize=12;spacing=2;" vertex="1" parent="1">
          <mxGeometry x="1456" y="30" width="100" height="40" as="geometry" />
        </mxCell>
        <mxCell id="PiYerZwcn-vwXJ7XSaG1-72" value="" style="shape=umlLifeline;perimeter=lifelinePerimeter;container=1;collapsible=0;recursiveResize=0;rounded=0;shadow=0;strokeWidth=1;fontSize=12;spacing=2;" vertex="1" parent="1">
          <mxGeometry x="1648" y="80" width="100" height="1152" as="geometry" />
        </mxCell>
        <mxCell id="PiYerZwcn-vwXJ7XSaG1-73" value="type of food" style="text;html=1;strokeColor=none;fillColor=none;align=center;verticalAlign=middle;whiteSpace=wrap;rounded=0;fontSize=12;spacing=2;" vertex="1" parent="PiYerZwcn-vwXJ7XSaG1-72">
          <mxGeometry width="100" height="40" as="geometry" />
        </mxCell>
        <mxCell id="PiYerZwcn-vwXJ7XSaG1-75" value="" style="points=[];perimeter=orthogonalPerimeter;rounded=0;shadow=0;strokeWidth=1;fontSize=12;spacing=2;" vertex="1" parent="PiYerZwcn-vwXJ7XSaG1-72">
          <mxGeometry x="45" y="272" width="10" height="12" as="geometry" />
        </mxCell>
        <mxCell id="PiYerZwcn-vwXJ7XSaG1-150" value="" style="points=[];perimeter=orthogonalPerimeter;rounded=0;shadow=0;strokeWidth=1;fontSize=12;spacing=2;" vertex="1" parent="PiYerZwcn-vwXJ7XSaG1-72">
          <mxGeometry x="45" y="600" width="10" height="30" as="geometry" />
        </mxCell>
        <mxCell id="PiYerZwcn-vwXJ7XSaG1-76" value="" style="shape=note;whiteSpace=wrap;html=1;backgroundOutline=1;darkOpacity=0.05;size=11;fontSize=12;spacing=2;" vertex="1" parent="1">
          <mxGeometry x="1648" y="30" width="100" height="40" as="geometry" />
        </mxCell>
        <mxCell id="PiYerZwcn-vwXJ7XSaG1-77" value="&lt;font style=&quot;font-size: 12px;&quot;&gt;NOTE:&lt;br style=&quot;font-size: 12px;&quot;&gt;Entity&lt;br style=&quot;font-size: 12px;&quot;&gt;&lt;/font&gt;" style="text;html=1;strokeColor=none;fillColor=none;align=left;verticalAlign=middle;whiteSpace=wrap;rounded=0;fontSize=12;spacing=2;" vertex="1" parent="1">
          <mxGeometry x="1648" y="30" width="100" height="40" as="geometry" />
        </mxCell>
        <mxCell id="PiYerZwcn-vwXJ7XSaG1-84" value="" style="endArrow=classic;html=1;rounded=0;strokeColor=#000000;strokeWidth=1;exitX=0.952;exitY=0.167;exitDx=0;exitDy=0;exitPerimeter=0;entryX=1;entryY=0.337;entryDx=0;entryDy=0;entryPerimeter=0;" edge="1" parent="1">
          <mxGeometry width="50" height="50" relative="1" as="geometry">
            <mxPoint x="679.0039999999997" y="415.8519999999999" as="sourcePoint" />
            <mxPoint x="679.3400000000001" y="432.1720000000001" as="targetPoint" />
            <Array as="points">
              <mxPoint x="728.34" y="415.82" />
              <mxPoint x="728.34" y="431.82" />
              <mxPoint x="728.34" y="431.82" />
              <mxPoint x="728.34" y="431.82" />
            </Array>
          </mxGeometry>
        </mxCell>
        <mxCell id="PiYerZwcn-vwXJ7XSaG1-85" value="inizialize GUI" style="edgeLabel;html=1;align=center;verticalAlign=middle;resizable=0;points=[];" vertex="1" connectable="0" parent="PiYerZwcn-vwXJ7XSaG1-84">
          <mxGeometry x="-0.3994" relative="1" as="geometry">
            <mxPoint x="47" as="offset" />
          </mxGeometry>
        </mxCell>
        <mxCell id="PiYerZwcn-vwXJ7XSaG1-86" value="supermarket view GUI" style="text;html=1;strokeColor=none;fillColor=none;align=center;verticalAlign=middle;whiteSpace=wrap;rounded=0;fontSize=12;spacing=2;" vertex="1" parent="1">
          <mxGeometry x="384" y="80" width="100" height="40" as="geometry" />
        </mxCell>
        <mxCell id="PiYerZwcn-vwXJ7XSaG1-87" value="" style="shape=note;whiteSpace=wrap;html=1;backgroundOutline=1;darkOpacity=0.05;size=11;fontSize=12;spacing=2;" vertex="1" parent="1">
          <mxGeometry x="384" y="30" width="100" height="40" as="geometry" />
        </mxCell>
        <mxCell id="PiYerZwcn-vwXJ7XSaG1-88" value="&lt;font style=&quot;font-size: 12px;&quot;&gt;NOTE:&lt;br style=&quot;font-size: 12px;&quot;&gt;Controller&lt;br style=&quot;font-size: 12px;&quot;&gt;&lt;/font&gt;" style="text;html=1;strokeColor=none;fillColor=none;align=left;verticalAlign=middle;whiteSpace=wrap;rounded=0;fontSize=12;spacing=2;" vertex="1" parent="1">
          <mxGeometry x="384" y="30" width="100" height="40" as="geometry" />
        </mxCell>
        <mxCell id="PiYerZwcn-vwXJ7XSaG1-89" value="" style="shape=umlLifeline;perimeter=lifelinePerimeter;container=1;collapsible=0;recursiveResize=0;rounded=0;shadow=0;strokeWidth=1;fontSize=12;spacing=2;" vertex="1" parent="1">
          <mxGeometry x="384" y="80" width="112" height="1168" as="geometry" />
        </mxCell>
        <mxCell id="PiYerZwcn-vwXJ7XSaG1-90" value="&amp;nbsp;controller GUI" style="text;html=1;strokeColor=none;fillColor=none;align=center;verticalAlign=middle;whiteSpace=wrap;rounded=0;fontSize=12;spacing=2;" vertex="1" parent="PiYerZwcn-vwXJ7XSaG1-89">
          <mxGeometry width="100" height="40" as="geometry" />
        </mxCell>
        <mxCell id="PiYerZwcn-vwXJ7XSaG1-91" value="" style="points=[];perimeter=orthogonalPerimeter;rounded=0;shadow=0;strokeWidth=1;fontSize=12;spacing=2;" vertex="1" parent="PiYerZwcn-vwXJ7XSaG1-89">
          <mxGeometry x="45" y="112" width="10" height="176" as="geometry" />
        </mxCell>
        <mxCell id="PiYerZwcn-vwXJ7XSaG1-92" value="" style="endArrow=classic;html=1;rounded=0;exitX=1.019;exitY=0.729;exitDx=0;exitDy=0;exitPerimeter=0;" edge="1" parent="PiYerZwcn-vwXJ7XSaG1-89" target="PiYerZwcn-vwXJ7XSaG1-72">
          <mxGeometry width="50" height="50" relative="1" as="geometry">
            <mxPoint x="55.00000000000006" y="272.964" as="sourcePoint" />
            <mxPoint x="1116.37" y="271.99600000000004" as="targetPoint" />
          </mxGeometry>
        </mxCell>
        <mxCell id="PiYerZwcn-vwXJ7XSaG1-93" value="create" style="edgeLabel;html=1;align=center;verticalAlign=middle;resizable=0;points=[];" vertex="1" connectable="0" parent="PiYerZwcn-vwXJ7XSaG1-92">
          <mxGeometry x="-0.0624" relative="1" as="geometry">
            <mxPoint as="offset" />
          </mxGeometry>
        </mxCell>
        <mxCell id="PiYerZwcn-vwXJ7XSaG1-94" value="" style="endArrow=classic;html=1;rounded=0;" edge="1" parent="PiYerZwcn-vwXJ7XSaG1-89">
          <mxGeometry width="50" height="50" relative="1" as="geometry">
            <mxPoint x="-194" y="799" as="sourcePoint" />
            <mxPoint x="289.5" y="799" as="targetPoint" />
          </mxGeometry>
        </mxCell>
        <mxCell id="PiYerZwcn-vwXJ7XSaG1-95" value="destroy" style="edgeLabel;html=1;align=center;verticalAlign=middle;resizable=0;points=[];" vertex="1" connectable="0" parent="PiYerZwcn-vwXJ7XSaG1-94">
          <mxGeometry x="-0.2058" y="1" relative="1" as="geometry">
            <mxPoint as="offset" />
          </mxGeometry>
        </mxCell>
        <mxCell id="PiYerZwcn-vwXJ7XSaG1-96" value="" style="points=[];perimeter=orthogonalPerimeter;rounded=0;shadow=0;strokeWidth=1;fontSize=12;spacing=2;" vertex="1" parent="PiYerZwcn-vwXJ7XSaG1-89">
          <mxGeometry x="285" y="799" width="10" height="206" as="geometry" />
        </mxCell>
        <mxCell id="PiYerZwcn-vwXJ7XSaG1-97" value="" style="points=[];perimeter=orthogonalPerimeter;rounded=0;shadow=0;strokeWidth=1;fontSize=12;spacing=2;" vertex="1" parent="PiYerZwcn-vwXJ7XSaG1-89">
          <mxGeometry x="525" y="861" width="10" height="16" as="geometry" />
        </mxCell>
        <mxCell id="PiYerZwcn-vwXJ7XSaG1-98" value="" style="points=[];perimeter=orthogonalPerimeter;rounded=0;shadow=0;strokeWidth=1;fontSize=12;spacing=2;" vertex="1" parent="PiYerZwcn-vwXJ7XSaG1-89">
          <mxGeometry x="725" y="893" width="10" height="16" as="geometry" />
        </mxCell>
        <mxCell id="PiYerZwcn-vwXJ7XSaG1-99" value="" style="points=[];perimeter=orthogonalPerimeter;rounded=0;shadow=0;strokeWidth=1;fontSize=12;spacing=2;" vertex="1" parent="PiYerZwcn-vwXJ7XSaG1-89">
          <mxGeometry x="926.5" y="915" width="10" height="16" as="geometry" />
        </mxCell>
        <mxCell id="PiYerZwcn-vwXJ7XSaG1-100" value="" style="points=[];perimeter=orthogonalPerimeter;rounded=0;shadow=0;strokeWidth=1;fontSize=12;spacing=2;" vertex="1" parent="PiYerZwcn-vwXJ7XSaG1-89">
          <mxGeometry x="1117" y="940" width="10" height="16" as="geometry" />
        </mxCell>
        <mxCell id="PiYerZwcn-vwXJ7XSaG1-101" value="" style="points=[];perimeter=orthogonalPerimeter;rounded=0;shadow=0;strokeWidth=1;fontSize=12;spacing=2;" vertex="1" parent="PiYerZwcn-vwXJ7XSaG1-89">
          <mxGeometry x="1309" y="973" width="10" height="12" as="geometry" />
        </mxCell>
        <mxCell id="PiYerZwcn-vwXJ7XSaG1-102" value="" style="points=[];perimeter=orthogonalPerimeter;rounded=0;shadow=0;strokeWidth=1;fontSize=12;spacing=2;" vertex="1" parent="PiYerZwcn-vwXJ7XSaG1-89">
          <mxGeometry x="45" y="813" width="10" height="176" as="geometry" />
        </mxCell>
        <mxCell id="PiYerZwcn-vwXJ7XSaG1-103" value="" style="endArrow=classic;html=1;rounded=0;exitX=1.019;exitY=0.729;exitDx=0;exitDy=0;exitPerimeter=0;" edge="1" parent="PiYerZwcn-vwXJ7XSaG1-89">
          <mxGeometry width="50" height="50" relative="1" as="geometry">
            <mxPoint x="55" y="973.9639999999999" as="sourcePoint" />
            <mxPoint x="1313.4999999999995" y="973.9639999999999" as="targetPoint" />
          </mxGeometry>
        </mxCell>
        <mxCell id="PiYerZwcn-vwXJ7XSaG1-104" value="destroy" style="edgeLabel;html=1;align=center;verticalAlign=middle;resizable=0;points=[];" vertex="1" connectable="0" parent="PiYerZwcn-vwXJ7XSaG1-103">
          <mxGeometry x="-0.0624" relative="1" as="geometry">
            <mxPoint as="offset" />
          </mxGeometry>
        </mxCell>
        <mxCell id="PiYerZwcn-vwXJ7XSaG1-105" value="" style="points=[];perimeter=orthogonalPerimeter;rounded=0;shadow=0;strokeWidth=1;fontSize=12;spacing=2;" vertex="1" parent="PiYerZwcn-vwXJ7XSaG1-89">
          <mxGeometry x="926.5" y="915" width="10" height="16" as="geometry" />
        </mxCell>
        <mxCell id="PiYerZwcn-vwXJ7XSaG1-106" value="" style="endArrow=classic;html=1;rounded=0;entryX=-0.033;entryY=0;entryDx=0;entryDy=0;entryPerimeter=0;" edge="1" parent="PiYerZwcn-vwXJ7XSaG1-89" target="PiYerZwcn-vwXJ7XSaG1-97">
          <mxGeometry width="50" height="50" relative="1" as="geometry">
            <mxPoint x="55" y="861.6700000000001" as="sourcePoint" />
            <mxPoint x="284.6700000000001" y="860.998" as="targetPoint" />
          </mxGeometry>
        </mxCell>
        <mxCell id="PiYerZwcn-vwXJ7XSaG1-107" value="destroy" style="edgeLabel;html=1;align=center;verticalAlign=middle;resizable=0;points=[];" vertex="1" connectable="0" parent="PiYerZwcn-vwXJ7XSaG1-106">
          <mxGeometry x="-0.0624" relative="1" as="geometry">
            <mxPoint x="-21" as="offset" />
          </mxGeometry>
        </mxCell>
        <mxCell id="PiYerZwcn-vwXJ7XSaG1-108" value="" style="endArrow=classic;html=1;rounded=0;entryX=-0.134;entryY=0.2;entryDx=0;entryDy=0;entryPerimeter=0;" edge="1" parent="PiYerZwcn-vwXJ7XSaG1-89" target="PiYerZwcn-vwXJ7XSaG1-98">
          <mxGeometry width="50" height="50" relative="1" as="geometry">
            <mxPoint x="55.159999999999854" y="893.6700000000001" as="sourcePoint" />
            <mxPoint x="524.83" y="893" as="targetPoint" />
          </mxGeometry>
        </mxCell>
        <mxCell id="PiYerZwcn-vwXJ7XSaG1-109" value="destroy" style="edgeLabel;html=1;align=center;verticalAlign=middle;resizable=0;points=[];" vertex="1" connectable="0" parent="PiYerZwcn-vwXJ7XSaG1-108">
          <mxGeometry x="-0.0624" relative="1" as="geometry">
            <mxPoint as="offset" />
          </mxGeometry>
        </mxCell>
        <mxCell id="PiYerZwcn-vwXJ7XSaG1-110" value="" style="endArrow=classic;html=1;rounded=0;entryX=0.15;entryY=0.187;entryDx=0;entryDy=0;entryPerimeter=0;" edge="1" parent="PiYerZwcn-vwXJ7XSaG1-89" target="PiYerZwcn-vwXJ7XSaG1-105">
          <mxGeometry width="50" height="50" relative="1" as="geometry">
            <mxPoint x="56.000000000000455" y="918" as="sourcePoint" />
            <mxPoint x="724.4999999999998" y="920.53" as="targetPoint" />
          </mxGeometry>
        </mxCell>
        <mxCell id="PiYerZwcn-vwXJ7XSaG1-111" value="destroy" style="edgeLabel;html=1;align=center;verticalAlign=middle;resizable=0;points=[];" vertex="1" connectable="0" parent="PiYerZwcn-vwXJ7XSaG1-110">
          <mxGeometry x="-0.0624" relative="1" as="geometry">
            <mxPoint as="offset" />
          </mxGeometry>
        </mxCell>
        <mxCell id="PiYerZwcn-vwXJ7XSaG1-112" value="" style="endArrow=classic;html=1;rounded=0;exitX=1.088;exitY=0.669;exitDx=0;exitDy=0;exitPerimeter=0;entryX=-0.044;entryY=0.021;entryDx=0;entryDy=0;entryPerimeter=0;" edge="1" parent="PiYerZwcn-vwXJ7XSaG1-89" source="PiYerZwcn-vwXJ7XSaG1-102" target="PiYerZwcn-vwXJ7XSaG1-100">
          <mxGeometry width="50" height="50" relative="1" as="geometry">
            <mxPoint x="54.00000000000023" y="947.01" as="sourcePoint" />
            <mxPoint x="1104" y="941" as="targetPoint" />
          </mxGeometry>
        </mxCell>
        <mxCell id="PiYerZwcn-vwXJ7XSaG1-113" value="destroy" style="edgeLabel;html=1;align=center;verticalAlign=middle;resizable=0;points=[];" vertex="1" connectable="0" parent="PiYerZwcn-vwXJ7XSaG1-112">
          <mxGeometry x="-0.0624" relative="1" as="geometry">
            <mxPoint as="offset" />
          </mxGeometry>
        </mxCell>
        <mxCell id="PiYerZwcn-vwXJ7XSaG1-114" value="" style="endArrow=classic;html=1;rounded=0;entryX=1.233;entryY=0.012;entryDx=0;entryDy=0;entryPerimeter=0;endFill=1;exitX=-0.032;exitY=0.078;exitDx=0;exitDy=0;exitPerimeter=0;" edge="1" parent="PiYerZwcn-vwXJ7XSaG1-89" source="PiYerZwcn-vwXJ7XSaG1-96" target="PiYerZwcn-vwXJ7XSaG1-102">
          <mxGeometry width="50" height="50" relative="1" as="geometry">
            <mxPoint x="290" y="847" as="sourcePoint" />
            <mxPoint x="340" y="797" as="targetPoint" />
          </mxGeometry>
        </mxCell>
        <mxCell id="PiYerZwcn-vwXJ7XSaG1-115" value="destroy" style="edgeLabel;html=1;align=center;verticalAlign=middle;resizable=0;points=[];" vertex="1" connectable="0" parent="PiYerZwcn-vwXJ7XSaG1-114">
          <mxGeometry x="0.2991" relative="1" as="geometry">
            <mxPoint as="offset" />
          </mxGeometry>
        </mxCell>
        <mxCell id="PiYerZwcn-vwXJ7XSaG1-178" value="" style="points=[];perimeter=orthogonalPerimeter;rounded=0;shadow=0;strokeWidth=1;fontSize=12;spacing=2;" vertex="1" parent="PiYerZwcn-vwXJ7XSaG1-89">
          <mxGeometry x="51" y="650" width="10" height="80" as="geometry" />
        </mxCell>
        <mxCell id="PiYerZwcn-vwXJ7XSaG1-179" value="" style="endArrow=classic;html=1;rounded=0;" edge="1" parent="PiYerZwcn-vwXJ7XSaG1-89" target="PiYerZwcn-vwXJ7XSaG1-8">
          <mxGeometry width="50" height="50" relative="1" as="geometry">
            <mxPoint x="61" y="700" as="sourcePoint" />
            <mxPoint x="111" y="650" as="targetPoint" />
          </mxGeometry>
        </mxCell>
        <mxCell id="PiYerZwcn-vwXJ7XSaG1-118" value="" style="points=[];perimeter=orthogonalPerimeter;rounded=0;shadow=0;strokeWidth=1;fontSize=12;spacing=2;" vertex="1" parent="1">
          <mxGeometry x="1310.5" y="294" width="10" height="16" as="geometry" />
        </mxCell>
        <mxCell id="PiYerZwcn-vwXJ7XSaG1-119" value="" style="endArrow=classic;html=1;rounded=0;entryX=-0.033;entryY=0;entryDx=0;entryDy=0;entryPerimeter=0;" edge="1" parent="1" target="PiYerZwcn-vwXJ7XSaG1-30">
          <mxGeometry width="50" height="50" relative="1" as="geometry">
            <mxPoint x="439" y="240.67" as="sourcePoint" />
            <mxPoint x="668.6700000000001" y="239.99799999999996" as="targetPoint" />
          </mxGeometry>
        </mxCell>
        <mxCell id="PiYerZwcn-vwXJ7XSaG1-120" value="create" style="edgeLabel;html=1;align=center;verticalAlign=middle;resizable=0;points=[];" vertex="1" connectable="0" parent="PiYerZwcn-vwXJ7XSaG1-119">
          <mxGeometry x="-0.0624" relative="1" as="geometry">
            <mxPoint x="-19" as="offset" />
          </mxGeometry>
        </mxCell>
        <mxCell id="PiYerZwcn-vwXJ7XSaG1-121" value="" style="endArrow=classic;html=1;rounded=0;entryX=-0.134;entryY=0.2;entryDx=0;entryDy=0;entryPerimeter=0;" edge="1" parent="1" target="PiYerZwcn-vwXJ7XSaG1-39">
          <mxGeometry width="50" height="50" relative="1" as="geometry">
            <mxPoint x="439.16" y="272.66999999999996" as="sourcePoint" />
            <mxPoint x="908.83" y="272" as="targetPoint" />
          </mxGeometry>
        </mxCell>
        <mxCell id="PiYerZwcn-vwXJ7XSaG1-122" value="create" style="edgeLabel;html=1;align=center;verticalAlign=middle;resizable=0;points=[];" vertex="1" connectable="0" parent="PiYerZwcn-vwXJ7XSaG1-121">
          <mxGeometry x="-0.0624" relative="1" as="geometry">
            <mxPoint as="offset" />
          </mxGeometry>
        </mxCell>
        <mxCell id="PiYerZwcn-vwXJ7XSaG1-123" value="" style="endArrow=classic;html=1;rounded=0;entryX=0.15;entryY=0.187;entryDx=0;entryDy=0;entryPerimeter=0;" edge="1" parent="1" target="PiYerZwcn-vwXJ7XSaG1-118">
          <mxGeometry width="50" height="50" relative="1" as="geometry">
            <mxPoint x="440.0000000000003" y="297.00000000000006" as="sourcePoint" />
            <mxPoint x="1108.4999999999998" y="299.53000000000003" as="targetPoint" />
          </mxGeometry>
        </mxCell>
        <mxCell id="PiYerZwcn-vwXJ7XSaG1-124" value="create" style="edgeLabel;html=1;align=center;verticalAlign=middle;resizable=0;points=[];" vertex="1" connectable="0" parent="PiYerZwcn-vwXJ7XSaG1-123">
          <mxGeometry x="-0.0624" relative="1" as="geometry">
            <mxPoint as="offset" />
          </mxGeometry>
        </mxCell>
        <mxCell id="PiYerZwcn-vwXJ7XSaG1-125" value="" style="endArrow=classic;html=1;rounded=0;exitX=1.088;exitY=0.669;exitDx=0;exitDy=0;exitPerimeter=0;entryX=-0.044;entryY=0.021;entryDx=0;entryDy=0;entryPerimeter=0;" edge="1" parent="1" source="PiYerZwcn-vwXJ7XSaG1-91" target="PiYerZwcn-vwXJ7XSaG1-69">
          <mxGeometry width="50" height="50" relative="1" as="geometry">
            <mxPoint x="438.0000000000002" y="326.01" as="sourcePoint" />
            <mxPoint x="1488" y="320" as="targetPoint" />
          </mxGeometry>
        </mxCell>
        <mxCell id="PiYerZwcn-vwXJ7XSaG1-126" value="create" style="edgeLabel;html=1;align=center;verticalAlign=middle;resizable=0;points=[];" vertex="1" connectable="0" parent="PiYerZwcn-vwXJ7XSaG1-125">
          <mxGeometry x="-0.0624" relative="1" as="geometry">
            <mxPoint as="offset" />
          </mxGeometry>
        </mxCell>
        <mxCell id="PiYerZwcn-vwXJ7XSaG1-127" value="" style="endArrow=classic;html=1;rounded=0;entryX=1.233;entryY=0.012;entryDx=0;entryDy=0;entryPerimeter=0;endFill=1;exitX=-0.032;exitY=0.078;exitDx=0;exitDy=0;exitPerimeter=0;" edge="1" parent="1" source="PiYerZwcn-vwXJ7XSaG1-15" target="PiYerZwcn-vwXJ7XSaG1-91">
          <mxGeometry width="50" height="50" relative="1" as="geometry">
            <mxPoint x="674" y="226" as="sourcePoint" />
            <mxPoint x="724" y="176" as="targetPoint" />
          </mxGeometry>
        </mxCell>
        <mxCell id="PiYerZwcn-vwXJ7XSaG1-128" value="init" style="edgeLabel;html=1;align=center;verticalAlign=middle;resizable=0;points=[];" vertex="1" connectable="0" parent="PiYerZwcn-vwXJ7XSaG1-127">
          <mxGeometry x="0.2991" relative="1" as="geometry">
            <mxPoint as="offset" />
          </mxGeometry>
        </mxCell>
        <mxCell id="PiYerZwcn-vwXJ7XSaG1-153" value="" style="endArrow=open;html=1;rounded=0;exitX=1;exitY=0.733;exitDx=0;exitDy=0;exitPerimeter=0;endFill=0;" edge="1" parent="1" target="PiYerZwcn-vwXJ7XSaG1-66">
          <mxGeometry width="50" height="50" relative="1" as="geometry">
            <mxPoint x="919.5" y="640" as="sourcePoint" />
            <mxPoint x="1314.5" y="640.19" as="targetPoint" />
          </mxGeometry>
        </mxCell>
        <mxCell id="PiYerZwcn-vwXJ7XSaG1-154" value="setExpiration" style="edgeLabel;html=1;align=center;verticalAlign=middle;resizable=0;points=[];" vertex="1" connectable="0" parent="PiYerZwcn-vwXJ7XSaG1-153">
          <mxGeometry x="-0.1444" relative="1" as="geometry">
            <mxPoint x="220" as="offset" />
          </mxGeometry>
        </mxCell>
        <mxCell id="PiYerZwcn-vwXJ7XSaG1-155" value="" style="endArrow=open;html=1;rounded=0;exitX=1;exitY=0.733;exitDx=0;exitDy=0;exitPerimeter=0;endFill=0;" edge="1" parent="1" target="PiYerZwcn-vwXJ7XSaG1-72">
          <mxGeometry width="50" height="50" relative="1" as="geometry">
            <mxPoint x="920" y="680" as="sourcePoint" />
            <mxPoint x="1506.5" y="680" as="targetPoint" />
          </mxGeometry>
        </mxCell>
        <mxCell id="PiYerZwcn-vwXJ7XSaG1-156" value="setTypeOfFood" style="edgeLabel;html=1;align=center;verticalAlign=middle;resizable=0;points=[];" vertex="1" connectable="0" parent="PiYerZwcn-vwXJ7XSaG1-155">
          <mxGeometry x="-0.1444" relative="1" as="geometry">
            <mxPoint x="347" as="offset" />
          </mxGeometry>
        </mxCell>
        <mxCell id="PiYerZwcn-vwXJ7XSaG1-165" value="" style="endArrow=classic;html=1;rounded=0;exitX=0.069;exitY=0.936;exitDx=0;exitDy=0;exitPerimeter=0;entryX=1.025;entryY=0.475;entryDx=0;entryDy=0;entryPerimeter=0;dashed=1;" edge="1" parent="1" source="PiYerZwcn-vwXJ7XSaG1-140" target="PiYerZwcn-vwXJ7XSaG1-137">
          <mxGeometry width="50" height="50" relative="1" as="geometry">
            <mxPoint x="950" y="610" as="sourcePoint" />
            <mxPoint x="1000" y="560" as="targetPoint" />
          </mxGeometry>
        </mxCell>
        <mxCell id="PiYerZwcn-vwXJ7XSaG1-169" value="return value" style="edgeLabel;html=1;align=center;verticalAlign=middle;resizable=0;points=[];" vertex="1" connectable="0" parent="PiYerZwcn-vwXJ7XSaG1-165">
          <mxGeometry x="0.164" y="1" relative="1" as="geometry">
            <mxPoint as="offset" />
          </mxGeometry>
        </mxCell>
        <mxCell id="PiYerZwcn-vwXJ7XSaG1-166" value="" style="endArrow=classic;html=1;rounded=0;exitX=0.069;exitY=0.936;exitDx=0;exitDy=0;exitPerimeter=0;entryX=1.025;entryY=0.667;entryDx=0;entryDy=0;entryPerimeter=0;dashed=1;" edge="1" parent="1" target="PiYerZwcn-vwXJ7XSaG1-137">
          <mxGeometry width="50" height="50" relative="1" as="geometry">
            <mxPoint x="1307" y="657.85" as="sourcePoint" />
            <mxPoint x="1116" y="657.85" as="targetPoint" />
          </mxGeometry>
        </mxCell>
        <mxCell id="PiYerZwcn-vwXJ7XSaG1-170" value="return value" style="edgeLabel;html=1;align=center;verticalAlign=middle;resizable=0;points=[];" vertex="1" connectable="0" parent="PiYerZwcn-vwXJ7XSaG1-166">
          <mxGeometry x="-0.1935" y="2" relative="1" as="geometry">
            <mxPoint x="29" as="offset" />
          </mxGeometry>
        </mxCell>
        <mxCell id="PiYerZwcn-vwXJ7XSaG1-168" value="" style="endArrow=classic;html=1;rounded=0;exitX=0.069;exitY=0.936;exitDx=0;exitDy=0;exitPerimeter=0;entryX=1.056;entryY=0.948;entryDx=0;entryDy=0;entryPerimeter=0;dashed=1;" edge="1" parent="1" target="PiYerZwcn-vwXJ7XSaG1-137">
          <mxGeometry width="50" height="50" relative="1" as="geometry">
            <mxPoint x="1693" y="710" as="sourcePoint" />
            <mxPoint x="918.96" y="715.8399999999999" as="targetPoint" />
          </mxGeometry>
        </mxCell>
        <mxCell id="PiYerZwcn-vwXJ7XSaG1-172" value="return value" style="edgeLabel;html=1;align=center;verticalAlign=middle;resizable=0;points=[];" vertex="1" connectable="0" parent="PiYerZwcn-vwXJ7XSaG1-168">
          <mxGeometry x="-0.7658" y="1" relative="1" as="geometry">
            <mxPoint y="-2" as="offset" />
          </mxGeometry>
        </mxCell>
        <mxCell id="PiYerZwcn-vwXJ7XSaG1-175" value="" style="endArrow=classic;html=1;rounded=0;exitX=0.011;exitY=0.847;exitDx=0;exitDy=0;exitPerimeter=0;entryX=0.976;entryY=0.887;entryDx=0;entryDy=0;entryPerimeter=0;" edge="1" parent="1" target="PiYerZwcn-vwXJ7XSaG1-10">
          <mxGeometry width="50" height="50" relative="1" as="geometry">
            <mxPoint x="908.5200000000001" y="716" as="sourcePoint" />
            <mxPoint x="680" y="710" as="targetPoint" />
          </mxGeometry>
        </mxCell>
        <mxCell id="PiYerZwcn-vwXJ7XSaG1-176" value="" style="endArrow=classic;html=1;rounded=0;exitX=0;exitY=0.971;exitDx=0;exitDy=0;exitPerimeter=0;entryX=0.523;entryY=0.56;entryDx=0;entryDy=0;entryPerimeter=0;dashed=1;" edge="1" parent="1" source="PiYerZwcn-vwXJ7XSaG1-10" target="PiYerZwcn-vwXJ7XSaG1-89">
          <mxGeometry width="50" height="50" relative="1" as="geometry">
            <mxPoint x="690" y="730" as="sourcePoint" />
            <mxPoint x="740" y="680" as="targetPoint" />
          </mxGeometry>
        </mxCell>
        <mxCell id="PiYerZwcn-vwXJ7XSaG1-177" value="insertInTableView" style="edgeLabel;html=1;align=center;verticalAlign=middle;resizable=0;points=[];" vertex="1" connectable="0" parent="PiYerZwcn-vwXJ7XSaG1-176">
          <mxGeometry x="0.0525" y="-1" relative="1" as="geometry">
            <mxPoint y="46" as="offset" />
          </mxGeometry>
        </mxCell>
        <mxCell id="PiYerZwcn-vwXJ7XSaG1-183" value="return new product" style="edgeLabel;html=1;align=center;verticalAlign=middle;resizable=0;points=[];" vertex="1" connectable="0" parent="PiYerZwcn-vwXJ7XSaG1-176">
          <mxGeometry x="0.1439" y="-1" relative="1" as="geometry">
            <mxPoint x="1" as="offset" />
          </mxGeometry>
        </mxCell>
        <mxCell id="PiYerZwcn-vwXJ7XSaG1-181" value="" style="endArrow=classic;html=1;rounded=0;strokeColor=#000000;strokeWidth=1;exitX=0.952;exitY=0.167;exitDx=0;exitDy=0;exitPerimeter=0;entryX=1;entryY=0.337;entryDx=0;entryDy=0;entryPerimeter=0;" edge="1" parent="1">
          <mxGeometry width="50" height="50" relative="1" as="geometry">
            <mxPoint x="679.0039999999997" y="793.6819999999999" as="sourcePoint" />
            <mxPoint x="679.3400000000001" y="810.0020000000001" as="targetPoint" />
            <Array as="points">
              <mxPoint x="728.34" y="793.65" />
              <mxPoint x="728.34" y="809.65" />
              <mxPoint x="728.34" y="809.65" />
              <mxPoint x="728.34" y="809.65" />
            </Array>
          </mxGeometry>
        </mxCell>
        <mxCell id="PiYerZwcn-vwXJ7XSaG1-182" value="refresh GUI" style="edgeLabel;html=1;align=center;verticalAlign=middle;resizable=0;points=[];" vertex="1" connectable="0" parent="PiYerZwcn-vwXJ7XSaG1-181">
          <mxGeometry x="-0.3994" relative="1" as="geometry">
            <mxPoint x="47" as="offset" />
          </mxGeometry>
        </mxCell>
        <mxCell id="PiYerZwcn-vwXJ7XSaG1-186" value="" style="endArrow=classic;html=1;rounded=0;strokeColor=#000000;strokeWidth=1;exitX=1.085;exitY=0.224;exitDx=0;exitDy=0;exitPerimeter=0;entryX=1;entryY=0.337;entryDx=0;entryDy=0;entryPerimeter=0;" edge="1" parent="1">
          <mxGeometry width="50" height="50" relative="1" as="geometry">
            <mxPoint x="1119.5100000000002" y="570.08" as="sourcePoint" />
            <mxPoint x="1119.0000000000002" y="580.352" as="targetPoint" />
            <Array as="points">
              <mxPoint x="1171.16" y="570" />
              <mxPoint x="1171.16" y="580" />
              <mxPoint x="1168.0000000000002" y="579.9999999999999" />
              <mxPoint x="1168.0000000000002" y="579.9999999999999" />
              <mxPoint x="1168.0000000000002" y="579.9999999999999" />
            </Array>
          </mxGeometry>
        </mxCell>
        <mxCell id="PiYerZwcn-vwXJ7XSaG1-187" value="checkName" style="edgeLabel;html=1;align=center;verticalAlign=middle;resizable=0;points=[];" vertex="1" connectable="0" parent="PiYerZwcn-vwXJ7XSaG1-186">
          <mxGeometry x="-0.3994" relative="1" as="geometry">
            <mxPoint x="54" y="5" as="offset" />
          </mxGeometry>
        </mxCell>
        <mxCell id="PiYerZwcn-vwXJ7XSaG1-188" value="" style="endArrow=classic;html=1;rounded=0;strokeColor=#000000;strokeWidth=1;exitX=1.085;exitY=0.224;exitDx=0;exitDy=0;exitPerimeter=0;entryX=1;entryY=0.337;entryDx=0;entryDy=0;entryPerimeter=0;" edge="1" parent="1">
          <mxGeometry width="50" height="50" relative="1" as="geometry">
            <mxPoint x="1511.5100000000002" y="650.9000000000001" as="sourcePoint" />
            <mxPoint x="1511.0000000000002" y="661.172" as="targetPoint" />
            <Array as="points">
              <mxPoint x="1563.16" y="650.82" />
              <mxPoint x="1563.16" y="660.82" />
              <mxPoint x="1560.0000000000002" y="660.8199999999999" />
              <mxPoint x="1560.0000000000002" y="660.8199999999999" />
              <mxPoint x="1560.0000000000002" y="660.8199999999999" />
            </Array>
          </mxGeometry>
        </mxCell>
        <mxCell id="PiYerZwcn-vwXJ7XSaG1-189" value="checkExpiration" style="edgeLabel;html=1;align=center;verticalAlign=middle;resizable=0;points=[];" vertex="1" connectable="0" parent="PiYerZwcn-vwXJ7XSaG1-188">
          <mxGeometry x="-0.3994" relative="1" as="geometry">
            <mxPoint x="56" y="5" as="offset" />
          </mxGeometry>
        </mxCell>
        <mxCell id="PiYerZwcn-vwXJ7XSaG1-190" value="" style="endArrow=classic;html=1;rounded=0;strokeColor=#000000;strokeWidth=1;exitX=1.085;exitY=0.224;exitDx=0;exitDy=0;exitPerimeter=0;entryX=1;entryY=0.337;entryDx=0;entryDy=0;entryPerimeter=0;" edge="1" parent="1">
          <mxGeometry width="50" height="50" relative="1" as="geometry">
            <mxPoint x="1703.5100000000002" y="690.08" as="sourcePoint" />
            <mxPoint x="1703.0000000000002" y="700.352" as="targetPoint" />
            <Array as="points">
              <mxPoint x="1755.16" y="690" />
              <mxPoint x="1755.16" y="700" />
              <mxPoint x="1752.0000000000002" y="699.9999999999999" />
              <mxPoint x="1752.0000000000002" y="699.9999999999999" />
              <mxPoint x="1752.0000000000002" y="699.9999999999999" />
            </Array>
          </mxGeometry>
        </mxCell>
        <mxCell id="PiYerZwcn-vwXJ7XSaG1-191" value="checkType" style="edgeLabel;html=1;align=center;verticalAlign=middle;resizable=0;points=[];" vertex="1" connectable="0" parent="PiYerZwcn-vwXJ7XSaG1-190">
          <mxGeometry x="-0.3994" relative="1" as="geometry">
            <mxPoint x="48" y="5" as="offset" />
          </mxGeometry>
        </mxCell>
      </root>
    </mxGraphModel>
  </diagram>
</mxfile>
